<?xml version="1.0" encoding="utf-8"?>
<!-- Generator: Adobe Illustrator 22.0.0, SVG Export Plug-In . SVG Version: 6.00 Build 0)  -->
<svg version="1.1" id="Calque_1" xmlns="http://www.w3.org/2000/svg" xmlns:xlink="http://www.w3.org/1999/xlink" x="0px" y="0px"
	 viewBox="0 0 40 60" style="enable-background:new 0 0 40 60;" xml:space="preserve">
<style type="text/css">
	.st0{fill:#064270;}
</style>
<path class="st0" d="M18.4,37.1c-0.2-0.6-0.3-1.1-0.5-1.7c-0.7-2.1-1.6-4-2.8-5.9c-0.8-1.3-1.6-2.6-2.4-3.9
	c-0.7-1.1-1.4-2.2-1.8-3.5c-0.7-2.3-0.4-4.5,0.9-6.6c1-1.6,2.5-2.7,4.3-3.2c4.2-1.2,8.8,1.1,9.9,5.6c0.4,1.8,0.2,3.5-0.5,5.1
	c-0.9,1.8-2,3.4-3,5.1c-1.4,2.2-2.6,4.4-3.4,6.8C18.8,35.7,18.6,36.4,18.4,37.1z M18.4,13.4c-3.6,0-6.5,2.9-6.5,6.5s2.9,6.5,6.5,6.5
	s6.5-2.9,6.5-6.5S22,13.4,18.4,13.4z M17,23.4c0.1,0,0.1,0,0.2,0c0.1,0,0.1,0,0.2,0c0.5,0,0.9,0,1.4,0c0.1,0,0.1,0,0.2,0
	c0,0,0,0,0.1,0c0.1,0,0.1,0,0.2,0c0,0,0,0,0.1,0c0.7,0,1.4-0.1,2-0.1c0.3,0,0.6-0.1,0.9-0.2c0.1,0,0.2,0,0.2-0.1
	c0-0.1-0.1-0.1-0.2-0.1c-0.3-0.1-0.6-0.1-0.9-0.2c-0.2,0-0.4,0-0.7-0.1c0.1-0.1,0.1-0.1,0.2-0.2c0.4-0.3,0.6-0.7,0.8-1.1
	c0-0.1,0.1-0.1,0.1-0.1c0.2,0,0.3,0,0.5,0c0.5-0.1,1-0.2,1.4-0.5c0.9-0.7,0.9-2,0-2.7c-0.4-0.3-0.8-0.4-1.3-0.5
	c-0.1,0-0.1,0-0.1-0.1c0-0.2,0-0.5,0-0.7c0-0.1,0-0.1-0.1-0.1c-2.9,0-5.7,0-8.6,0c-0.1,0-0.1,0-0.1,0.1c0,0.7,0,1.5,0.1,2.2
	c0.1,0.7,0.2,1.3,0.4,1.9c0.3,0.8,0.6,1.4,1.3,1.9c0,0,0,0,0,0c-0.4,0-0.8,0.1-1.2,0.1c-0.2,0-0.3,0.1-0.5,0.1c-0.1,0-0.1,0.1,0,0.1
	c0,0,0.1,0,0.1,0.1c0.2,0.1,0.4,0.1,0.6,0.1c0.8,0.1,1.2,0.2,2,0.2c0,0,0.3,0,0.4,0C16.8,23.4,16.9,23.4,17,23.4z M22.3,19.3
	c0-0.3,0.1-0.6,0.1-1c0-0.2,0-0.2,0.2-0.1c0.1,0,0.3,0.1,0.4,0.2c0.2,0.1,0.3,0.3,0.3,0.5c0,0.2,0,0.4,0,0.6
	c-0.1,0.4-0.3,0.6-0.6,0.7c-0.2,0.1-0.4,0.1-0.6,0.1C22.2,20,22.2,19.7,22.3,19.3z M17,21.2C17,21.3,17,21.2,17,21.2
	c-0.4,0-0.6-0.1-0.8-0.3c-0.2-0.2-0.3-0.5-0.3-0.8c0-0.1-0.1-0.2-0.1-0.3c-0.1-0.2-0.1-0.2,0.1-0.3c0-0.1-0.1-0.1-0.1-0.2
	c-0.1-0.2,0-0.3,0.2-0.3c0.1,0,0.1,0,0.1-0.1c0.3-0.8,0.9-1.2,1.7-1.4c0,0,0,0,0,0c0,0.1,0,0.1,0,0.2c0,0.2,0.1,0.2,0.3,0.2
	c0.1,0,0.2-0.1,0.3-0.2c0,0,0-0.1,0-0.1c0,0,0.1,0,0.1,0c0.8,0.2,1.3,0.6,1.6,1.4c0,0,0,0.1,0.1,0.1c0.1-0.1,0.2,0.1,0.3,0.1
	c0,0.1,0,0.2-0.1,0.2c0,0-0.1,0.1-0.1,0.1c0,0,0.1,0,0.1,0c0.1,0,0.1,0.1,0,0.2c-0.1,0.1-0.2,0.3-0.2,0.5c-0.1,0.3-0.2,0.5-0.4,0.8
	c-0.2,0.2-0.4,0.3-0.7,0.2c-0.1,0-0.1,0,0-0.1c0.1-0.2,0-0.3-0.1-0.3c-0.1-0.1-0.3,0-0.4,0.2c-0.1,0.1,0,0.3,0.1,0.4
	c0.1,0.1,0.2,0.1,0.3,0.1c0.6,0,1-0.2,1.3-0.7c0.4-0.7,0.3-1.5-0.1-2.2c-0.5-0.9-1.5-1.4-2.7-1.3c-1.4,0.2-2.4,1.6-2,3
	c0.1,0.6,0.5,1,1.1,1.2c0.2,0.1,0.5,0.1,0.7-0.1c0.1-0.1,0.2-0.3,0.1-0.4c-0.1-0.1-0.2-0.2-0.4-0.2C16.9,20.9,16.9,21,17,21.2
	C17,21.2,17,21.2,17,21.2z M16.5,21c-0.4-0.4-0.5-1.1-0.3-1.6c0.1-0.1,0.2-0.3,0.3-0.2c0,0,0.1,0,0.1,0c0-0.1-0.1-0.2-0.1-0.2
	c0-0.1-0.1,0-0.2,0c0.3-0.6,0.8-0.9,1.4-1.1c0,0,0-0.1,0-0.2c0,0,0,0,0,0c-0.8,0.2-1.4,0.6-1.7,1.4c0,0,0,0.1-0.1,0.1
	c-0.2,0-0.3,0.1-0.2,0.3c0,0.1,0.1,0.1,0.1,0.2c-0.2,0.1-0.2,0.1-0.1,0.3c0.1,0.1,0.1,0.2,0.1,0.3c0,0.3,0.1,0.5,0.3,0.8
	c0.2,0.3,0.4,0.4,0.7,0.4c0,0,0.1,0,0.1,0c0,0,0,0-0.1,0C16.8,21.2,16.6,21.1,16.5,21z M19.7,18.9c-0.1,0-0.2-0.1-0.2,0.1
	c0,0.1-0.1,0.1-0.1,0.2c0,0,0,0,0.1,0c0.2,0,0.3,0.1,0.3,0.2c0.2,0.5,0.1,1.2-0.3,1.6c-0.2,0.2-0.3,0.3-0.6,0.2
	c-0.1,0-0.1,0.1,0,0.1c0.3,0,0.5-0.1,0.7-0.2c0.2-0.2,0.3-0.5,0.4-0.8c0-0.2,0.1-0.4,0.2-0.5c0.1-0.1,0-0.1,0-0.2c0,0-0.1,0-0.1,0
	c0,0,0.1-0.1,0.1-0.1c0.1-0.1,0.1-0.2,0.1-0.2c0-0.1-0.1-0.2-0.3-0.1c-0.1,0-0.1,0-0.1-0.1c-0.3-0.7-0.9-1.2-1.6-1.4
	c0,0-0.1,0-0.1,0c0,0,0,0.1,0,0.1C18.9,17.9,19.6,18.4,19.7,18.9z M18.1,19.2c0,0-0.1,0-0.1,0c-0.1,0.1-0.1,0.1-0.2,0.1
	c-0.1,0-0.2,0-0.3-0.1c-0.1-0.1,0-0.2,0.1-0.3c0-0.1-0.1-0.1-0.1-0.2c-0.2,0.1-0.3,0.3-0.4,0.4c0,0,0,0.1,0,0.1
	c0.2,0.1,0.4,0.4,0.7,0.4c0.1,0,0.1,0,0.2,0c0,0,0,0,0.1,0c0.1,0.1,0.2,0.1,0.3,0c0,0,0.1,0,0.1,0c0.1,0,0.2,0,0.3,0.2
	c0,0.1,0,0.2-0.1,0.3c0,0-0.1,0-0.1,0.1c0,0.1,0,0.2,0,0.2c0.2-0.1,0.4-0.1,0.5-0.2c0.1-0.1,0.1-0.2,0.3-0.3c0,0,0-0.1,0-0.1
	c-0.2-0.2-0.4-0.3-0.7-0.4C18.2,19.3,18.2,19.3,18.1,19.2z M18.2,19.6C18.2,19.6,18.2,19.6,18.2,19.6c-0.2,0.1-0.3,0.1-0.4,0
	c0,0,0,0-0.1,0c0,0.2,0,0.3,0,0.5c0,0.1,0,0.1,0,0.2c0,0.1-0.1,0.2-0.2,0.3c0,0,0,0.1,0,0.1c0,0.1,0.1,0,0.1,0c0,0,0.1-0.1,0.1-0.1
	c0.1,0,0.1,0,0.1-0.1c0-0.1,0.1-0.1,0.1,0c0,0.1,0.1,0.1,0.1,0.1c0,0,0.1,0,0.1,0.1c0,0,0,0.1,0.1,0c0,0,0-0.1,0-0.1
	c-0.1-0.1-0.1-0.1-0.1-0.2c0-0.1-0.1-0.2,0-0.2C18.2,20,18.2,19.8,18.2,19.6z M17.7,19.3c0.1,0,0.2,0,0.2-0.1
	c-0.1-0.1-0.1-0.3-0.2-0.4c0-0.1-0.1-0.1-0.1-0.2c0-0.1,0-0.2,0-0.3c0-0.1,0-0.1-0.1-0.1c-0.1,0-0.2,0.2-0.3,0.1
	c-0.1,0-0.2,0-0.3,0.1c0,0,0,0,0,0c0.1,0,0.2,0.1,0.3,0.2c0.1,0,0.1,0.1,0.1,0.2C17.6,19,17.7,19.2,17.7,19.3z M18.3,18.8
	c0.1,0,0.2,0,0.3,0.1c0.1,0,0.1,0.1,0.2,0.1c0,0,0-0.1,0.1-0.1c0-0.1,0.2-0.1,0.1-0.2c0-0.1-0.2,0-0.2,0c-0.1,0-0.2,0-0.3-0.1
	c-0.2-0.1-0.4-0.3-0.6-0.1c0,0,0,0,0,0c0,0.1,0,0.1,0.1,0.2C18,18.8,18.1,18.7,18.3,18.8z M19,18.5c-0.1-0.1-0.2-0.2-0.3-0.1
	c-0.1,0-0.2-0.2-0.3-0.1c-0.1,0-0.1,0-0.1,0.1c0.1,0.1,0,0.2,0,0.3c0.1,0.1,0.2,0.1,0.3,0.1C18.7,18.6,18.8,18.5,19,18.5z
	 M17.3,19.8C17.3,19.8,17.3,19.8,17.3,19.8c-0.1,0-0.1,0-0.1,0c0,0.1,0,0.2-0.1,0.3c0,0-0.1,0.1,0,0.1c0,0,0.1,0,0.1,0
	c0.1-0.1,0.2-0.1,0.3-0.1c0.1,0,0.2,0.1,0.3,0.1c0-0.1,0-0.1,0-0.2C17.6,20.1,17.4,20,17.3,19.8z M18.1,19.2
	c0.1,0.1,0.2,0.1,0.2,0.1c0.1-0.1,0.1-0.3,0.2-0.4c-0.1-0.1-0.2-0.1-0.3-0.1C18.2,18.9,18.1,19.1,18.1,19.2z"/>
</svg>
