<?xml version="1.0" encoding="utf-8"?>
<!-- Generator: Adobe Illustrator 22.0.0, SVG Export Plug-In . SVG Version: 6.00 Build 0)  -->
<svg version="1.1" id="Calque_1" xmlns="http://www.w3.org/2000/svg" xmlns:xlink="http://www.w3.org/1999/xlink" x="0px" y="0px"
	 viewBox="0 0 40 60" style="enable-background:new 0 0 40 60;" xml:space="preserve">
<style type="text/css">
	.st0{fill:#406318;}
	.st1{fill:#FFFFFF;stroke:#A3A3A3;stroke-width:0.1;stroke-miterlimit:10;}
	.st2{fill:#D67B18;stroke:#FFE174;stroke-width:0.25;stroke-miterlimit:10;}
	.st3{fill:#894629;stroke:#FFE174;stroke-width:0.25;stroke-miterlimit:10;}
	.st4{fill:#FFE174;}
</style>
<path class="st0" d="M19,30.2c0.1-0.4,0.2-0.8,0.3-1.2c0.5-1.4,1.2-2.7,2-3.9c0.6-1,1.2-1.9,1.7-2.9c0.5-0.9,0.6-1.9,0.3-2.9
	c-0.6-2.6-3.2-3.9-5.7-3.2c-1,0.3-1.9,0.9-2.5,1.8c-0.8,1.2-0.9,2.4-0.5,3.7c0.2,0.7,0.6,1.4,1,2c0.4,0.7,0.9,1.5,1.4,2.2
	c0.6,1.1,1.2,2.2,1.6,3.4C18.8,29.6,18.9,29.9,19,30.2z"/>
<path class="st1" d="M18.3,21.7C18.3,21.8,18.4,21.7,18.3,21.7c0.1,0,0.1,0,0.1,0c0.2,0,0.4,0,0.6,0c0,0,0.1,0,0.1,0c0,0,0,0,0,0
	c0,0,0.1,0,0.1,0c0,0,0,0,0,0c0.3,0,0.6,0,0.9,0.1c0.1,0,0.3,0,0.4,0.1c0,0,0.1,0,0.1,0.1c0,0,0,0-0.1,0.1c-0.1,0-0.3,0.1-0.4,0.1
	c-0.1,0-0.2,0-0.3,0c0,0,0.1,0.1,0.1,0.1c0.2,0.1,0.3,0.3,0.4,0.5c0,0,0,0,0.1,0c0.1,0,0.2,0,0.2,0c0.2,0,0.5,0.1,0.6,0.2
	c0.4,0.3,0.4,0.9,0,1.2c-0.2,0.1-0.4,0.2-0.6,0.2c0,0,0,0,0,0.1c0,0.1,0,0.2,0,0.3c0,0,0,0.1-0.1,0.1c-1.3,0-2.6,0-4,0
	c0,0-0.1,0-0.1-0.1c0-0.3,0-0.7,0-1c0-0.3,0.1-0.6,0.2-0.9c0.1-0.3,0.3-0.7,0.6-0.9c0,0,0,0,0,0c-0.2,0-0.4,0-0.6-0.1
	c-0.1,0-0.1,0-0.2-0.1c0,0,0,0,0-0.1c0,0,0,0,0,0c0.1,0,0.2,0,0.3-0.1c0.4-0.1,0.7-0.1,1.1-0.1c0,0,0,0,0,0
	C18.3,21.7,18.3,21.7,18.3,21.7z M20.8,23.6c0,0.1,0,0.3,0,0.4c0,0.1,0,0.1,0.1,0.1c0.1,0,0.1,0,0.2-0.1c0.1-0.1,0.1-0.1,0.2-0.2
	c0-0.1,0-0.2,0-0.3c0-0.2-0.1-0.3-0.3-0.3c-0.1,0-0.2,0-0.3-0.1C20.7,23.3,20.7,23.5,20.8,23.6z"/>
<path class="st2" d="M19,30.2c-0.1-0.3-0.2-0.6-0.3-0.9c-0.4-1.2-0.9-2.3-1.6-3.4c-0.4-0.7-0.9-1.5-1.4-2.2c-0.4-0.6-0.8-1.3-1-2
	c-0.4-1.3-0.2-2.6,0.5-3.7c0.6-0.9,1.4-1.5,2.5-1.8c2.4-0.7,5,0.6,5.7,3.2c0.3,1,0.1,2-0.3,2.9c-0.5,1-1.1,2-1.7,2.9
	c-0.8,1.2-1.5,2.5-2,3.9C19.2,29.5,19.1,29.8,19,30.2z"/>
<circle class="st3" cx="19" cy="20.4" r="3.7"/>
<g>
	<path class="st4" d="M18.8,20.3c-0.4,0.7-0.9,1.4-1.3,2.1c-0.1,0.1-0.1,0.3-0.4,0.2c-0.2-0.1-0.1-0.3-0.1-0.4
		c0.6-1.4,1.2-2.9,1.9-4.3c0.1-0.2,0.1-0.4,0.4-0.3c0.3,0.1,0.6,0.1,0.7,0.3c0.1,0.2,0,0.3-0.1,0.4C19.6,19,19.2,19.7,18.8,20.3z"/>
	<path class="st4" d="M19,20.5c0.4-0.7,0.8-1.3,1.2-2c0.1-0.2,0.3-0.4,0.5-0.2c0.2,0.2,0.7,0.4,0.4,0.8c-0.4,0.6-0.9,1.2-1.4,1.8
		c-0.5,0.6-1.1,1.3-1.6,1.9c-0.1,0.1-0.2,0.3-0.4,0.1c-0.2-0.2,0-0.3,0-0.4C18.2,21.9,18.6,21.2,19,20.5z"/>
	<path class="st4" d="M17.6,18.2c0.2-0.3,0.4-0.6,0.8-0.7c0.1,0,0.2,0,0.3,0.1c0.1,0.1,0,0.2,0,0.3c-0.7,1.3-1.3,2.6-1.8,4
		c0,0.1-0.1,0.3-0.2,0.3c-0.2,0-0.2-0.2-0.2-0.4c0-0.1,0-0.2,0-0.2C16.7,20.4,17.1,19.3,17.6,18.2z"/>
	<path class="st4" d="M21.5,20.7c-0.7,0.9-1.6,1.7-2.4,2.5c-0.1,0.1-0.2,0.1-0.3,0.1c-0.1,0-0.3,0.1-0.4,0c-0.1-0.1,0-0.2,0.1-0.3
		c1-1.1,1.9-2.3,2.8-3.5c0.2-0.3,0.3-0.2,0.4,0.1C21.9,19.9,21.7,20.3,21.5,20.7z"/>
</g>
</svg>
