<?xml version="1.0" encoding="utf-8"?>
<!-- Generator: Adobe Illustrator 22.0.0, SVG Export Plug-In . SVG Version: 6.00 Build 0)  -->
<svg version="1.1" id="Calque_1" xmlns="http://www.w3.org/2000/svg" xmlns:xlink="http://www.w3.org/1999/xlink" x="0px" y="0px"
	 viewBox="0 0 40 60" style="enable-background:new 0 0 40 60;" xml:space="preserve">
<style type="text/css">
	.st0{fill:#064270;}
	.st1{fill:#D63837;stroke:#FFFFFF;stroke-width:0.25;stroke-miterlimit:10;}
	.st2{fill:#FFFFFF;stroke:#A3A3A3;stroke-width:0.1;stroke-miterlimit:10;}
	.st3{fill:#D1383A;}
	.st4{fill:#D13839;}
	.st5{fill:#D63837;}
	.st6{fill:#074371;}
	.st7{fill:#074372;}
	.st8{fill:#D43A3A;}
	.st9{fill:#D73E3E;}
	.st10{fill:#084371;}
</style>
<path class="st0" d="M29.2,36.1c-0.1-0.3-0.2-0.7-0.3-1c-0.4-1.2-1-2.4-1.6-3.5c-0.5-0.8-1-1.5-1.4-2.3c-0.4-0.7-0.8-1.3-1.1-2.1
	c-0.4-1.4-0.2-2.6,0.5-3.8c0.6-0.9,1.4-1.6,2.5-1.9c2.5-0.7,5.1,0.6,5.8,3.3c0.3,1,0.1,2-0.3,3c-0.5,1.1-1.1,2-1.8,3
	c-0.8,1.3-1.5,2.6-2,4C29.4,35.3,29.3,35.7,29.2,36.1z"/>
<circle class="st1" cx="29.2" cy="26" r="3.8"/>
<path class="st2" d="M28.3,28.1c-0.1,0-0.2,0-0.2,0c-0.5,0-0.7,0-1.2-0.1c-0.1,0-0.2,0-0.4-0.1c0,0,0,0-0.1,0c0,0,0-0.1,0-0.1
	c0.1,0,0.2-0.1,0.3-0.1c0.2,0,0.5-0.1,0.7-0.1c0,0,0,0,0,0c-0.4-0.3-0.6-0.7-0.7-1.1c-0.1-0.4-0.2-0.7-0.2-1.1c0-0.4,0-0.9,0-1.3
	c0-0.1,0-0.1,0.1-0.1c1.7,0,3.4,0,5.1,0c0.1,0,0.1,0,0.1,0.1c0,0.1,0,0.3,0,0.4c0,0,0,0.1,0.1,0.1c0.3,0.1,0.5,0.1,0.7,0.3
	c0.5,0.4,0.5,1.2,0,1.6c-0.2,0.2-0.5,0.3-0.8,0.3c-0.1,0-0.2,0-0.3,0c0,0-0.1,0-0.1,0.1c-0.1,0.3-0.3,0.5-0.5,0.7
	c0,0-0.1,0.1-0.1,0.1c0.1,0,0.3,0,0.4,0c0.2,0,0.4,0,0.5,0.1c0,0,0.1,0,0.1,0.1c0,0.1-0.1,0.1-0.1,0.1c-0.2,0.1-0.4,0.1-0.5,0.1
	c-0.4,0-0.8,0.1-1.2,0.1c0,0,0,0,0,0c0,0-0.1,0-0.1,0c-0.1,0-0.1,0-0.1,0c0,0-0.1,0-0.1,0c-0.3,0-0.5,0-0.8,0c0,0,0,0-0.1,0
	c0,0-0.1,0-0.1,0C28.3,28.1,28.3,28.1,28.3,28.1z M31.4,26.3c0.1,0,0.2,0,0.4-0.1c0.2-0.1,0.3-0.2,0.3-0.4c0-0.1,0-0.2,0-0.4
	c0-0.1-0.1-0.2-0.2-0.3c-0.1,0-0.1-0.1-0.2-0.1c-0.1,0-0.1,0-0.1,0.1c0,0.2,0,0.4-0.1,0.6C31.5,25.9,31.4,26.1,31.4,26.3z"/>
<g>
	<path class="st0" d="M28.2,27c0-0.1,0-0.2,0.1-0.2c0.1,0,0.2,0,0.3,0.1c0.1,0.1,0,0.2-0.1,0.3c-0.1,0.1-0.3,0.1-0.5,0.1
		c-0.4-0.1-0.7-0.4-0.8-0.8c-0.2-1,0.4-2,1.4-2.1c0.8-0.1,1.5,0.2,1.9,0.9c0.3,0.5,0.3,1,0,1.5c-0.2,0.4-0.5,0.5-0.9,0.5
		c-0.1,0-0.2,0-0.2-0.1c-0.1-0.1-0.1-0.2-0.1-0.3c0-0.1,0.2-0.2,0.3-0.1c0.1,0,0.1,0.1,0.1,0.2c0,0,0,0,0,0c0.2,0,0.3,0,0.5-0.2
		c0.1-0.1,0.2-0.3,0.3-0.5c0-0.1,0.1-0.2,0.1-0.3c0,0,0-0.1,0-0.1c0,0-0.1,0-0.1,0c0,0,0.1,0,0.1-0.1c0,0,0.1-0.1,0.1-0.2
		c0,0-0.1-0.1-0.2-0.1c-0.1,0-0.1,0-0.1-0.1c-0.2-0.5-0.6-0.8-1.1-1c0,0-0.1,0-0.1,0c0,0,0,0.1,0,0.1c0,0.1-0.1,0.2-0.2,0.2
		c-0.1,0-0.2-0.1-0.2-0.2c0,0,0-0.1,0-0.1c0,0,0,0,0,0c-0.5,0.1-1,0.4-1.2,1c0,0,0,0.1-0.1,0.1c-0.1,0-0.2,0.1-0.2,0.2
		c0,0.1,0.1,0.1,0.1,0.1c-0.1,0.1-0.1,0.1-0.1,0.2c0,0.1,0.1,0.1,0.1,0.2c0,0.2,0.1,0.4,0.2,0.5C27.8,27,28,27.1,28.2,27
		C28.3,27,28.3,27.1,28.2,27C28.3,27,28.3,27,28.2,27z"/>
	<path class="st3" d="M28.2,27C28.3,27,28.3,27,28.2,27C28.3,27.1,28.3,27,28.2,27c-0.2,0.1-0.4,0-0.5-0.2c-0.1-0.2-0.2-0.3-0.2-0.5
		c0-0.1-0.1-0.1-0.1-0.2c-0.1-0.1-0.1-0.1,0.1-0.2c0,0-0.1-0.1-0.1-0.1c-0.1-0.1,0-0.2,0.2-0.2c0.1,0,0.1,0,0.1-0.1
		c0.2-0.5,0.6-0.8,1.2-1c0,0,0,0,0,0c0,0,0,0.1,0,0.1c-0.4,0.1-0.8,0.4-1,0.8c0,0,0.1,0,0.1,0c0,0.1,0,0.1,0.1,0.2c0,0,0,0,0,0
		c-0.1,0-0.2,0.1-0.2,0.2c-0.2,0.3-0.1,0.9,0.2,1.1C28,27,28.1,27,28.2,27z"/>
	<path class="st4" d="M29.2,24.6C29.2,24.6,29.2,24.5,29.2,24.6C29.2,24.5,29.2,24.5,29.2,24.6c0.6,0.1,1,0.4,1.2,0.9
		c0,0,0,0.1,0.1,0.1c0.1,0,0.1,0,0.2,0.1c0,0,0,0.1-0.1,0.2c0,0-0.1,0-0.1,0.1c0,0,0.1,0,0.1,0c0.1,0,0.1,0.1,0,0.1
		c-0.1,0.1-0.1,0.2-0.1,0.3c0,0.2-0.1,0.4-0.3,0.5c-0.1,0.1-0.3,0.2-0.5,0.2c-0.1,0,0,0,0,0c0.2,0,0.3-0.1,0.4-0.2
		c0.2-0.3,0.3-0.8,0.2-1.1c0-0.1-0.1-0.2-0.2-0.2c0,0-0.1,0,0,0c0-0.1,0.1-0.1,0.1-0.1c0-0.1,0.1,0,0.1,0
		C30.1,25.1,29.6,24.7,29.2,24.6z"/>
	<path class="st5" d="M29.2,25.7c0.2,0,0.4,0.1,0.5,0.3c0,0,0,0.1,0,0.1c-0.1,0.1-0.1,0.1-0.2,0.2c-0.1,0.1-0.2,0.1-0.4,0.2
		c0-0.1,0-0.1,0-0.2c0,0,0.1,0,0.1,0c0.1,0,0.1-0.1,0.1-0.2c0-0.1-0.1-0.1-0.2-0.1c0,0,0,0-0.1,0c-0.1,0.1-0.1,0-0.2,0c0,0,0,0,0,0
		c0,0-0.1,0-0.1,0c-0.2,0-0.3-0.2-0.5-0.3c0,0,0-0.1,0-0.1c0.1-0.1,0.2-0.2,0.3-0.3c0,0,0.1,0.1,0.1,0.1c-0.1,0.1-0.1,0.1,0,0.2
		c0,0.1,0.1,0.1,0.2,0.1c0.1,0,0.1,0,0.2-0.1c0,0,0,0,0.1,0C29.1,25.7,29.1,25.7,29.2,25.7z"/>
	<path class="st6" d="M29.2,26.3c0,0.1,0,0.1,0,0.2c0,0.1,0,0.1,0.1,0.2c0,0,0,0,0,0.1c0,0,0,0-0.1,0c0,0-0.1,0-0.1,0
		c0,0-0.1,0-0.1-0.1c0-0.1-0.1-0.1-0.1,0c0,0.1,0,0.1-0.1,0.1c0,0-0.1,0-0.1,0c0,0,0,0-0.1,0c0,0,0,0,0-0.1c0.1,0,0.1-0.1,0.1-0.2
		c0,0,0-0.1,0-0.1c0-0.1,0-0.2,0-0.4c0,0,0,0,0,0c0.1,0,0.1,0.1,0.2,0c0,0,0,0,0.1,0C29.1,26,29.1,26.1,29.2,26.3z"/>
	<path class="st7" d="M28.6,25.4c0-0.1,0-0.1-0.1-0.1c-0.1-0.1-0.1-0.1-0.2-0.2c0,0,0,0,0,0c0.1-0.1,0.1-0.1,0.2-0.1
		c0.1,0,0.1-0.1,0.2-0.1c0.1,0,0.1,0,0,0.1c0,0.1,0,0.1,0,0.2c0,0.1,0,0.1,0,0.1c0,0.1,0.1,0.2,0.1,0.3c0,0-0.1,0.1-0.2,0.1
		C28.7,25.6,28.7,25.5,28.6,25.4z"/>
	<path class="st8" d="M28.8,25.3c0,0,0-0.1,0-0.1c0,0,0,0,0,0c0.1-0.1,0.3-0.1,0.4,0c0.1,0.1,0.1,0.1,0.2,0.1c0.1,0,0.1,0,0.2,0
		c0,0-0.1,0.1-0.1,0.1c0,0,0,0,0,0.1c0,0-0.1-0.1-0.1-0.1c0-0.1-0.1-0.1-0.2-0.1C29.1,25.3,29,25.3,28.8,25.3z"/>
	<path class="st7" d="M29.4,25.3c-0.1,0-0.2,0-0.2-0.1c0-0.1,0-0.2,0-0.2c0-0.1,0-0.1,0-0.1c0.1,0,0.1,0.1,0.2,0.1
		c0.1,0,0.2,0,0.2,0.1C29.6,25.1,29.5,25.2,29.4,25.3z"/>
	<path class="st9" d="M28.9,26.3c0,0,0,0.1,0,0.1c-0.1,0-0.1,0-0.2-0.1c-0.1,0-0.2,0-0.2,0.1c0,0,0,0-0.1,0c0,0,0,0,0-0.1
		c0.1-0.1,0.1-0.2,0.1-0.2c0,0,0-0.1,0-0.1c0,0,0,0,0.1,0C28.6,26.2,28.7,26.2,28.9,26.3z"/>
	<path class="st10" d="M29.2,25.3c0.1,0,0.1,0,0.2,0.1c0,0.1-0.1,0.2-0.1,0.3c-0.1,0-0.1,0-0.2-0.1C29.1,25.5,29.1,25.4,29.2,25.3z"
		/>
</g>
</svg>
