<?xml version="1.0" encoding="utf-8"?>
<!-- Generator: Adobe Illustrator 22.0.0, SVG Export Plug-In . SVG Version: 6.00 Build 0)  -->
<svg version="1.1" id="Calque_1" xmlns="http://www.w3.org/2000/svg" xmlns:xlink="http://www.w3.org/1999/xlink" x="0px" y="0px"
	 viewBox="0 0 40 60" style="enable-background:new 0 0 40 60;" xml:space="preserve">
<style type="text/css">
	.st0{fill:#064270;}
	.st1{fill:#D63837;stroke:#FFFFFF;stroke-miterlimit:10;}
	.st2{fill:#FFFFFF;stroke:#A3A3A3;stroke-width:0.1;stroke-miterlimit:10;}
	.st3{fill:#D1383A;}
	.st4{fill:#D13839;}
	.st5{fill:#D63837;}
	.st6{fill:#074371;}
	.st7{fill:#074372;}
	.st8{fill:#D43A3A;}
	.st9{fill:#D73E3E;}
	.st10{fill:#084371;}
</style>
<path class="st0" d="M19.4,54.1c-0.4-1.2-0.6-2.2-1-3.3c-1.4-4.1-3.2-8-5.5-11.7c-1.5-2.6-3.2-5-4.8-7.6c-1.3-2.2-2.8-4.4-3.6-6.9
	C3.2,20,3.8,15.7,6.4,11.7c2-3.1,4.9-5.3,8.5-6.3C23.3,3,32.2,7.5,34.5,16.4c0.9,3.5,0.5,6.9-1.1,10.1c-1.7,3.5-3.8,6.8-5.9,10.1
	c-2.7,4.3-5.1,8.7-6.8,13.5C20.2,51.4,19.8,52.7,19.4,54.1z"/>
<circle class="st1" cx="19.4" cy="20.1" r="12.8"/>
<path class="st2" d="M16.4,27c-0.2,0-0.7,0-0.8,0c-1.5-0.1-2.5-0.2-4-0.4c-0.4-0.1-0.8-0.1-1.2-0.3c-0.1,0-0.1-0.1-0.2-0.1
	c-0.1-0.1-0.1-0.2,0-0.3c0.3-0.2,0.6-0.2,0.9-0.3c0.8-0.1,1.6-0.2,2.4-0.3c0,0,0,0,0,0c-1.2-1-2-2.3-2.5-3.8
	c-0.4-1.2-0.6-2.5-0.8-3.8c-0.1-1.5-0.1-2.9-0.2-4.4c0-0.2,0-0.2,0.2-0.2c5.7,0,11.3,0,17,0c0.2,0,0.2,0.1,0.2,0.2c0,0.5,0,1,0,1.5
	c0,0.2,0,0.2,0.2,0.2c0.9,0.2,1.8,0.5,2.5,1.1c1.7,1.4,1.7,4.1-0.1,5.4c-0.8,0.6-1.8,0.9-2.8,1c-0.3,0-0.6,0.1-1,0.1
	c-0.1,0-0.2,0.1-0.3,0.2c-0.4,0.8-0.9,1.6-1.6,2.2c-0.1,0.1-0.2,0.2-0.4,0.4c0.5,0,0.9,0.1,1.3,0.1c0.6,0.1,1.2,0.1,1.8,0.3
	c0.1,0,0.3,0.1,0.3,0.2c0,0.2-0.2,0.2-0.3,0.3c-0.6,0.2-1.2,0.3-1.9,0.3c-1.3,0.2-2.7,0.2-4,0.3c0,0,0,0-0.1,0c-0.1,0-0.2,0-0.3,0
	c-0.2,0-0.2,0-0.3,0c-0.1,0-0.3,0-0.4,0c-0.9,0-1.9,0-2.8,0c-0.2,0-0.2,0-0.3,0c-0.1,0-0.2,0-0.3,0C16.7,27,16.5,27,16.4,27z
	 M26.8,20.9c0.4,0,0.8-0.1,1.2-0.3c0.6-0.2,1.1-0.6,1.2-1.3c0.1-0.4,0.1-0.8,0-1.2c-0.1-0.4-0.3-0.7-0.6-1c-0.2-0.2-0.5-0.3-0.8-0.4
	c-0.3-0.1-0.3-0.1-0.3,0.2c0,0.6-0.1,1.3-0.2,1.9C27.1,19.6,27,20.3,26.8,20.9z"/>
<path class="st0" d="M16.6,22.2c0-0.3-0.1-0.6,0.3-0.7c0.2-0.1,0.6,0.1,0.7,0.3c0.1,0.2,0.1,0.6-0.2,0.8C17,23,16.5,23,16.1,22.8
	c-1.2-0.3-1.9-1.1-2.2-2.3c-0.7-2.8,1.1-5.5,4-5.9c2.2-0.3,4.3,0.6,5.2,2.5c0.7,1.4,0.8,2.8,0.1,4.3c-0.5,1-1.4,1.5-2.5,1.5
	c-0.2,0-0.4-0.1-0.6-0.2c-0.3-0.2-0.4-0.5-0.2-0.8c0.1-0.3,0.5-0.5,0.8-0.3c0.2,0.1,0.4,0.3,0.2,0.7c-0.1,0.1-0.1,0.1,0,0.1
	c0.5,0,0.9-0.1,1.3-0.5c0.4-0.4,0.6-0.9,0.7-1.5c0.1-0.4,0.2-0.7,0.4-1c0.1-0.1,0.1-0.2-0.1-0.3c-0.1,0-0.2,0-0.2-0.1
	c0.1-0.1,0.2-0.1,0.2-0.2c0.1-0.1,0.3-0.4,0.2-0.5c-0.1-0.1-0.2-0.4-0.5-0.3c-0.2,0.1-0.2-0.1-0.2-0.2c-0.6-1.5-1.7-2.3-3.2-2.7
	c-0.1,0-0.2-0.1-0.2,0c0,0.1,0.1,0.2,0.1,0.3c-0.1,0.3-0.3,0.5-0.6,0.5c-0.3,0-0.5-0.1-0.6-0.5c0-0.1,0.1-0.2,0.1-0.3
	c0,0-0.1,0-0.1,0c-1.5,0.4-2.7,1.3-3.3,2.8c0,0.1,0,0.2-0.2,0.2c-0.4-0.1-0.6,0.2-0.4,0.6c0.1,0.1,0.2,0.2,0.3,0.3
	c-0.4,0.1-0.4,0.2-0.2,0.5c0.1,0.2,0.3,0.3,0.3,0.6c0,0.6,0.3,1.1,0.6,1.5c0.4,0.5,0.9,0.7,1.5,0.7c0.1,0,0.1,0,0.1-0.1
	C16.7,22.2,16.7,22.2,16.6,22.2z"/>
<path class="st3" d="M16.6,22.2c0,0,0.1,0.1,0.1,0.1c0,0.1-0.1,0.1-0.1,0.1c-0.6,0-1.1-0.2-1.5-0.7c-0.3-0.5-0.5-1-0.6-1.5
	c0-0.3-0.2-0.4-0.3-0.6c-0.2-0.4-0.2-0.4,0.2-0.5c-0.1-0.1-0.2-0.2-0.3-0.3c-0.1-0.4,0.1-0.6,0.4-0.6c0.2,0,0.2-0.1,0.2-0.2
	c0.6-1.5,1.8-2.4,3.3-2.8c0,0,0.1,0,0.1,0c0,0.1,0,0.2-0.1,0.3c-1.2,0.3-2.2,1-2.8,2.1c0.1,0.1,0.2-0.1,0.3,0.1
	c0.1,0.2,0.1,0.3,0.2,0.5c0,0.1-0.1,0.1-0.1,0.1c-0.3,0-0.5,0.2-0.6,0.5c-0.4,0.9-0.2,2.4,0.6,3.2C15.9,22.1,16.2,22.3,16.6,22.2z"
	/>
<path class="st4" d="M19.3,15.5c0-0.1-0.1-0.2-0.1-0.3c0.1-0.1,0.2,0,0.2,0c1.5,0.4,2.6,1.3,3.2,2.7c0,0.1,0,0.2,0.2,0.2
	c0.3-0.1,0.4,0.1,0.5,0.3c0.1,0.1,0,0.3-0.2,0.5C23.1,18.9,23,19,22.9,19c0.1,0,0.2,0,0.2,0.1c0.2,0.1,0.2,0.2,0.1,0.3
	c-0.3,0.3-0.3,0.6-0.4,1c-0.1,0.6-0.3,1.1-0.7,1.5c-0.4,0.4-0.8,0.5-1.3,0.5c-0.2,0-0.1-0.1,0-0.1c0.5,0.1,0.8-0.2,1.1-0.5
	c0.7-0.7,0.9-2.2,0.5-3.1c-0.1-0.3-0.3-0.5-0.6-0.5c-0.1,0-0.1,0-0.1-0.1c0-0.1,0.2-0.2,0.2-0.4c0-0.2,0.2-0.1,0.3-0.1
	C21.9,16.8,20.5,15.7,19.3,15.5z"/>
<path class="st5" d="M19.3,18.6c0.6,0.1,1,0.4,1.4,0.8c0.1,0.1,0.1,0.2,0,0.2c-0.2,0.1-0.3,0.4-0.5,0.5c-0.3,0.3-0.7,0.4-1,0.5
	c-0.1-0.1-0.1-0.3-0.1-0.5c0.1,0,0.2-0.1,0.3-0.1c0.2-0.1,0.3-0.3,0.2-0.5c-0.1-0.2-0.2-0.4-0.5-0.3c-0.1,0-0.1,0-0.2,0
	c-0.2,0.2-0.3,0.1-0.5,0c0,0-0.1,0-0.1,0c-0.1-0.1-0.3-0.1-0.4-0.1c-0.6,0-0.9-0.5-1.3-0.7c-0.1,0-0.1-0.1,0-0.2
	c0.3-0.2,0.4-0.6,0.8-0.8c0.1,0.1,0.2,0.2,0.2,0.4c-0.2,0.2-0.2,0.4-0.1,0.6c0.1,0.2,0.3,0.3,0.6,0.2c0.2,0,0.3-0.1,0.5-0.2
	c0.1,0,0.1,0,0.2,0C19,18.5,19.1,18.6,19.3,18.6z"/>
<path class="st6" d="M19.1,20.1c0,0.2,0,0.3,0.1,0.5c0,0.2,0.1,0.3,0.3,0.5c0.1,0.1,0.1,0.1,0,0.2c-0.1,0.1-0.1,0-0.2,0
	c-0.1,0-0.2-0.1-0.3-0.1c-0.1,0-0.2,0-0.3-0.2c0-0.2-0.2-0.2-0.2,0c-0.1,0.2-0.1,0.2-0.3,0.2c-0.1,0-0.2,0.1-0.3,0.1
	c-0.1,0-0.1,0.1-0.2,0c0-0.1-0.1-0.1,0-0.2c0.2-0.1,0.3-0.3,0.3-0.6c0-0.1,0.1-0.2,0.1-0.3c0.1-0.3,0-0.7,0-1c0,0,0.1,0,0.1,0
	c0.2,0.1,0.3,0.2,0.5,0c0,0,0.1,0,0.2,0C19.1,19.5,19.1,19.8,19.1,20.1z"/>
<path class="st7" d="M17.7,17.7c0-0.2-0.1-0.3-0.2-0.4c-0.2-0.2-0.4-0.4-0.6-0.4c0,0,0-0.1,0-0.1c0.2-0.2,0.4-0.2,0.6-0.2
	c0.2,0,0.3-0.3,0.5-0.3c0.2,0,0.2,0.1,0.1,0.2c-0.1,0.2-0.1,0.4,0,0.5c0,0.1,0.1,0.3,0.1,0.4c0.1,0.3,0.2,0.6,0.4,0.9
	c-0.1,0.1-0.3,0.2-0.5,0.2C18,18.3,17.9,18,17.7,17.7z"/>
<path class="st8" d="M18.3,17.5c-0.1-0.1-0.1-0.3-0.1-0.4c0,0,0,0,0,0c0.4-0.4,0.8-0.2,1.1,0.1c0.2,0.2,0.4,0.2,0.6,0.2
	c0.2,0,0.4-0.1,0.5,0.1c0.1,0.1-0.2,0.2-0.3,0.3c0,0.1-0.1,0.1-0.1,0.2c-0.1-0.1-0.2-0.2-0.3-0.3c-0.1-0.2-0.3-0.2-0.5-0.2
	C18.9,17.4,18.6,17.4,18.3,17.5z"/>
<path class="st7" d="M20,17.4c-0.2,0-0.5-0.1-0.6-0.2c0.1-0.2,0.1-0.4,0-0.7c-0.1-0.2,0-0.1,0.1-0.2c0.3-0.1,0.4,0.3,0.6,0.3
	c0.3,0,0.5,0,0.6,0.3C20.3,17,20.1,17.2,20,17.4z"/>
<path class="st9" d="M18.3,20.2c0,0.1,0,0.2-0.1,0.3c-0.2-0.1-0.4-0.1-0.6-0.2c-0.2-0.1-0.4,0-0.6,0.1c-0.1,0.1-0.1,0.1-0.2,0
	c-0.1-0.1,0-0.1,0-0.2c0.2-0.2,0.2-0.4,0.2-0.7c0-0.1,0-0.2,0.1-0.2c0.1,0,0.1,0,0.2,0.1C17.5,20,17.9,20.1,18.3,20.2z"/>
<path class="st10" d="M19.2,17.5c0.2,0,0.4,0.1,0.5,0.2c-0.1,0.3-0.3,0.5-0.4,0.8c-0.2,0-0.4-0.1-0.5-0.2
	C19,18.1,19.1,17.8,19.2,17.5z"/>
</svg>
