<?xml version="1.0" encoding="utf-8"?>
<!-- Generator: Adobe Illustrator 22.0.0, SVG Export Plug-In . SVG Version: 6.00 Build 0)  -->
<svg version="1.1" id="Calque_1" xmlns="http://www.w3.org/2000/svg" xmlns:xlink="http://www.w3.org/1999/xlink" x="0px" y="0px"
	 viewBox="0 0 40 60" style="enable-background:new 0 0 40 60;" xml:space="preserve">
<style type="text/css">
	.st0{fill:#064270;}
	.st1{fill:#D63837;stroke:#FFFFFF;stroke-width:0.25;stroke-miterlimit:10;}
	.st2{fill:#FFFFFF;stroke:#A3A3A3;stroke-width:0.1;stroke-miterlimit:10;}
	.st3{fill:#D1383A;}
	.st4{fill:#D13839;}
	.st5{fill:#D63837;}
	.st6{fill:#074371;}
	.st7{fill:#074372;}
	.st8{fill:#D43A3A;}
	.st9{fill:#D73E3E;}
	.st10{fill:#084371;}
</style>
<path class="st0" d="M21.1,40.8c-0.2-0.8-0.4-1.5-0.7-2.3c-0.9-2.8-2.2-5.5-3.8-8.1c-1.1-1.8-2.2-3.5-3.3-5.3
	c-0.9-1.5-1.9-3.1-2.5-4.8c-1-3.2-0.6-6.2,1.2-8.9c1.4-2.2,3.4-3.7,5.9-4.4c5.8-1.6,11.9,1.5,13.5,7.7c0.6,2.4,0.3,4.7-0.7,7
	c-1.2,2.4-2.7,4.7-4.1,7c-1.9,2.9-3.6,6-4.7,9.3C21.7,38.9,21.4,39.8,21.1,40.8z"/>
<circle class="st1" cx="21.1" cy="17.3" r="8.9"/>
<path class="st2" d="M19,22.1c-0.1,0-0.5,0-0.5,0c-1.1,0-1.7-0.1-2.8-0.3c-0.3,0-0.6-0.1-0.8-0.2c-0.1,0-0.1,0-0.1-0.1
	c-0.1-0.1-0.1-0.1,0-0.2c0.2-0.1,0.4-0.2,0.6-0.2c0.6-0.1,1.1-0.2,1.7-0.2c0,0,0,0,0,0c-0.9-0.7-1.4-1.6-1.7-2.6
	c-0.3-0.9-0.4-1.7-0.5-2.6c-0.1-1-0.1-2-0.1-3c0-0.1,0-0.2,0.2-0.2c3.9,0,7.8,0,11.8,0c0.1,0,0.2,0,0.2,0.2c0,0.3,0,0.7,0,1
	c0,0.1,0,0.1,0.1,0.2c0.6,0.1,1.2,0.3,1.7,0.7c1.2,0.9,1.2,2.8-0.1,3.7c-0.6,0.4-1.2,0.6-1.9,0.7c-0.2,0-0.4,0.1-0.7,0.1
	c-0.1,0-0.1,0-0.2,0.1c-0.3,0.6-0.7,1.1-1.1,1.5c-0.1,0.1-0.2,0.1-0.3,0.2c0.3,0,0.6,0.1,0.9,0.1c0.4,0.1,0.9,0.1,1.3,0.2
	c0.1,0,0.2,0.1,0.2,0.2c0,0.1-0.1,0.1-0.2,0.2c-0.4,0.1-0.8,0.2-1.3,0.2C24.3,22,23.4,22,22.4,22c0,0,0,0-0.1,0c-0.1,0-0.1,0-0.2,0
	c-0.1,0-0.1,0-0.2,0c-0.1,0-0.2,0-0.3,0c-0.6,0-1.3,0-1.9,0c-0.1,0-0.1,0-0.2,0c0,0-0.1,0-0.2,0C19.2,22.1,19.1,22.1,19,22.1z
	 M26.2,17.9c0.3,0,0.6-0.1,0.8-0.2c0.4-0.2,0.7-0.4,0.8-0.9c0-0.3,0.1-0.5,0-0.8c-0.1-0.3-0.2-0.5-0.4-0.7c-0.2-0.1-0.3-0.2-0.5-0.2
	c-0.2-0.1-0.2-0.1-0.2,0.2c0,0.4-0.1,0.9-0.1,1.3C26.5,17,26.4,17.4,26.2,17.9z"/>
<path class="st0" d="M19.2,18.7c0-0.2,0-0.4,0.2-0.5c0.2-0.1,0.4,0,0.5,0.2c0.1,0.2,0,0.4-0.1,0.6c-0.3,0.2-0.6,0.2-0.9,0.1
	c-0.8-0.2-1.3-0.8-1.5-1.6c-0.5-1.9,0.8-3.8,2.7-4.1c1.5-0.2,3,0.4,3.6,1.7c0.5,1,0.6,2,0.1,2.9c-0.4,0.7-1,1-1.8,1
	c-0.2,0-0.3,0-0.4-0.1c-0.2-0.1-0.2-0.3-0.2-0.5c0.1-0.2,0.3-0.3,0.5-0.2c0.1,0.1,0.3,0.2,0.1,0.5c-0.1,0-0.1,0.1,0,0.1
	c0.3,0,0.6-0.1,0.9-0.3c0.3-0.3,0.4-0.6,0.5-1c0-0.2,0.1-0.5,0.3-0.7c0.1-0.1,0-0.2-0.1-0.2c-0.1,0-0.1,0-0.2,0
	c0.1,0,0.1-0.1,0.2-0.1c0.1-0.1,0.2-0.2,0.1-0.3c-0.1-0.1-0.1-0.3-0.3-0.2c-0.1,0-0.1-0.1-0.1-0.1c-0.4-1-1.2-1.6-2.2-1.9
	c-0.1,0-0.1,0-0.2,0c0,0.1,0,0.1,0.1,0.2c-0.1,0.2-0.2,0.3-0.4,0.3c-0.2,0-0.4-0.1-0.4-0.3c0-0.1,0.1-0.1,0-0.2c0,0,0,0-0.1,0
	c-1.1,0.3-1.9,0.9-2.3,1.9c0,0.1,0,0.1-0.1,0.1c-0.3,0-0.4,0.2-0.3,0.4c0,0.1,0.1,0.1,0.2,0.2c-0.3,0.1-0.3,0.1-0.1,0.4
	c0.1,0.1,0.2,0.2,0.2,0.4c0,0.4,0.2,0.7,0.4,1.1C18.4,18.7,18.7,18.8,19.2,18.7C19.2,18.8,19.3,18.9,19.2,18.7
	C19.3,18.8,19.2,18.8,19.2,18.7z"/>
<path class="st3" d="M19.2,18.7C19.2,18.8,19.3,18.8,19.2,18.7C19.3,18.9,19.2,18.8,19.2,18.7c-0.4,0.1-0.8,0-1-0.4
	c-0.2-0.3-0.4-0.7-0.4-1.1c0-0.2-0.1-0.3-0.2-0.4c-0.1-0.2-0.1-0.3,0.1-0.4c-0.1-0.1-0.2-0.1-0.2-0.2c-0.1-0.3,0-0.4,0.3-0.4
	c0.1,0,0.1-0.1,0.1-0.1c0.4-1.1,1.2-1.6,2.3-1.9c0,0,0,0,0.1,0c0,0.1,0,0.1,0,0.2c-0.8,0.2-1.5,0.7-2,1.5c0.1,0.1,0.2-0.1,0.2,0
	c0,0.1,0.1,0.2,0.1,0.3c0,0.1,0,0.1-0.1,0.1c-0.2,0-0.4,0.1-0.4,0.3C17.8,17,18,18,18.5,18.5C18.7,18.7,18.9,18.8,19.2,18.7z"/>
<path class="st4" d="M21,14.1c0-0.1,0-0.1-0.1-0.2c0.1-0.1,0.1,0,0.2,0c1,0.3,1.8,0.9,2.2,1.9c0,0.1,0,0.2,0.1,0.1
	c0.2-0.1,0.3,0.1,0.3,0.2c0.1,0.1,0,0.2-0.1,0.3c0,0-0.1,0.1-0.2,0.1c0.1,0,0.1,0,0.2,0c0.1,0,0.1,0.1,0.1,0.2
	c-0.2,0.2-0.2,0.4-0.3,0.7c-0.1,0.4-0.2,0.7-0.5,1c-0.2,0.2-0.6,0.3-0.9,0.3c-0.1,0-0.1,0,0-0.1c0.3,0,0.6-0.1,0.8-0.3
	c0.5-0.5,0.6-1.5,0.4-2.1C23.1,16.1,23,16,22.7,16c0,0-0.1,0-0.1-0.1c0-0.1,0.1-0.1,0.1-0.3c0-0.2,0.1-0.1,0.2-0.1
	C22.8,15,21.9,14.3,21,14.1z"/>
<path class="st5" d="M21.1,16.2c0.4,0.1,0.7,0.3,1,0.5c0.1,0.1,0.1,0.1,0,0.2c-0.1,0.1-0.2,0.3-0.3,0.4c-0.2,0.2-0.5,0.3-0.7,0.3
	c-0.1-0.1-0.1-0.2-0.1-0.3c0.1,0,0.1,0,0.2-0.1c0.1-0.1,0.2-0.2,0.2-0.4c0-0.2-0.2-0.3-0.4-0.2c0,0-0.1,0-0.1,0
	c-0.1,0.1-0.2,0.1-0.4,0c0,0-0.1,0-0.1,0c-0.1-0.1-0.2-0.1-0.3-0.1c-0.4,0-0.6-0.3-0.9-0.5c0,0,0-0.1,0-0.1c0.2-0.1,0.3-0.4,0.6-0.5
	c0.1,0.1,0.1,0.1,0.2,0.3c-0.1,0.1-0.2,0.3-0.1,0.4c0.1,0.1,0.2,0.2,0.4,0.2c0.1,0,0.2,0,0.3-0.1c0,0,0.1,0,0.1,0
	C20.8,16.2,20.9,16.2,21.1,16.2z"/>
<path class="st6" d="M20.9,17.3c0,0.1,0,0.2,0.1,0.3c0,0.1,0.1,0.2,0.2,0.3c0.1,0,0,0.1,0,0.1c-0.1,0.1-0.1,0-0.1,0
	C21,18,21,18,20.9,18c-0.1,0-0.2,0-0.2-0.1c0-0.1-0.1-0.1-0.2,0c0,0.1-0.1,0.1-0.2,0.1c-0.1,0-0.1,0.1-0.2,0.1c0,0-0.1,0.1-0.1,0
	c0,0,0-0.1,0-0.1c0.1-0.1,0.2-0.2,0.2-0.4c0-0.1,0.1-0.1,0-0.2c0-0.2,0-0.5,0-0.7c0,0,0.1,0,0.1,0c0.1,0.1,0.2,0.1,0.4,0
	c0,0,0.1,0,0.1,0C20.9,16.9,20.9,17.1,20.9,17.3z"/>
<path class="st7" d="M19.9,15.7c0-0.1-0.1-0.2-0.2-0.3c-0.1-0.2-0.3-0.3-0.4-0.3c0,0,0-0.1,0-0.1c0.1-0.1,0.2-0.1,0.4-0.1
	c0.1,0,0.2-0.2,0.4-0.2c0.1,0,0.1,0,0.1,0.1c-0.1,0.1-0.1,0.2,0,0.4c0,0.1,0,0.2,0.1,0.3c0.1,0.2,0.1,0.4,0.2,0.6
	c-0.1,0.1-0.2,0.1-0.3,0.1C20.2,16,20.1,15.8,19.9,15.7z"/>
<path class="st8" d="M20.3,15.5c0-0.1-0.1-0.2-0.1-0.3c0,0,0,0,0,0c0.3-0.3,0.5-0.1,0.8,0.1c0.1,0.1,0.3,0.2,0.4,0.2
	c0.1,0,0.3-0.1,0.3,0c0,0.1-0.2,0.1-0.2,0.2c0,0-0.1,0.1-0.1,0.1c-0.1-0.1-0.1-0.1-0.2-0.2c-0.1-0.1-0.2-0.2-0.4-0.2
	C20.8,15.4,20.5,15.4,20.3,15.5z"/>
<path class="st7" d="M21.5,15.4c-0.2,0-0.3,0-0.4-0.2c0-0.2,0.1-0.3,0-0.5c-0.1-0.1,0-0.1,0.1-0.1c0.2-0.1,0.2,0.2,0.4,0.2
	c0.2,0,0.3,0,0.4,0.2C21.7,15.1,21.6,15.3,21.5,15.4z"/>
<path class="st9" d="M20.4,17.3c0,0.1,0,0.2,0,0.2c-0.1,0-0.3-0.1-0.4-0.1c-0.2,0-0.3,0-0.4,0.1c-0.1,0.1-0.1,0-0.1,0
	c-0.1,0,0-0.1,0-0.1c0.1-0.1,0.1-0.3,0.1-0.5c0-0.1,0-0.1,0.1-0.1c0.1,0,0.1,0,0.1,0.1C19.8,17.2,20.1,17.3,20.4,17.3z"/>
<path class="st10" d="M21,15.5c0.1,0,0.3,0,0.4,0.2c-0.1,0.2-0.2,0.4-0.3,0.6c-0.1,0-0.2,0-0.3-0.1C20.8,15.9,20.9,15.7,21,15.5z"/>
</svg>
