<?xml version="1.0" encoding="utf-8"?>
<!-- Generator: Adobe Illustrator 22.0.0, SVG Export Plug-In . SVG Version: 6.00 Build 0)  -->
<svg version="1.1" id="Calque_1" xmlns="http://www.w3.org/2000/svg" xmlns:xlink="http://www.w3.org/1999/xlink" x="0px" y="0px"
	 viewBox="0 0 40 60" style="enable-background:new 0 0 40 60;" xml:space="preserve">
<style type="text/css">
	.st0{fill:#406318;}
	.st1{fill:#FFFFFF;stroke:#A3A3A3;stroke-width:0.1;stroke-miterlimit:10;}
	.st2{fill:#064270;}
	.st3{fill:#D63837;stroke:#FFFFFF;stroke-width:0.5;stroke-miterlimit:10;}
	.st4{fill:#D1383A;}
	.st5{fill:#D13839;}
	.st6{fill:#D63837;}
	.st7{fill:#074371;}
	.st8{fill:#074372;}
	.st9{fill:#D43A3A;}
	.st10{fill:#D73E3E;}
	.st11{fill:#084371;}
</style>
<g>
	<path class="st0" d="M19.3,40.1c0.2-0.7,0.4-1.4,0.6-2c0.8-2.4,2.1-4.7,3.4-6.8c1.1-1.7,2.2-3.3,3-5.1c0.8-1.7,1-3.4,0.5-5.1
		c-1.1-4.5-5.7-6.8-9.9-5.6c-1.8,0.5-3.3,1.6-4.3,3.2c-1.3,2-1.6,4.2-0.9,6.6c0.4,1.3,1.1,2.4,1.8,3.5c0.8,1.3,1.6,2.6,2.4,3.9
		c1.1,1.9,2.1,3.8,2.8,5.9C19,39,19.1,39.5,19.3,40.1z"/>
	<path class="st1" d="M18.1,25.3C18.1,25.3,18.1,25.3,18.1,25.3c0.1,0,0.2,0,0.2,0c0.4,0,0.8,0,1.1,0c0.1,0,0.1,0,0.2,0
		c0,0,0.1,0,0.1,0c0,0,0.1,0,0.1,0c0,0,0,0,0.1,0c0.5,0,1.1,0,1.6,0.1c0.3,0,0.5,0.1,0.8,0.1c0.1,0,0.1,0,0.1,0.1
		c0,0.1-0.1,0.1-0.1,0.1c-0.2,0.1-0.5,0.1-0.7,0.1c-0.2,0-0.3,0-0.5,0.1c0.1,0.1,0.1,0.1,0.2,0.1c0.3,0.3,0.5,0.6,0.7,0.9
		c0,0.1,0.1,0.1,0.1,0.1c0.1,0,0.3,0,0.4,0c0.4,0.1,0.8,0.2,1.1,0.4c0.7,0.5,0.7,1.6,0,2.2c-0.3,0.2-0.7,0.4-1,0.4
		c-0.1,0-0.1,0-0.1,0.1c0,0.2,0,0.4,0,0.6c0,0.1,0,0.1-0.1,0.1c-2.3,0-4.6,0-6.9,0c-0.1,0-0.1,0-0.1-0.1c0-0.6,0-1.2,0.1-1.8
		c0.1-0.5,0.1-1,0.3-1.6c0.2-0.6,0.5-1.1,1-1.6c0,0,0,0,0,0c-0.3,0-0.7-0.1-1-0.1c-0.1,0-0.3,0-0.4-0.1c-0.1,0-0.1-0.1,0-0.1
		c0,0,0.1,0,0.1,0c0.2-0.1,0.3-0.1,0.5-0.1c0.6-0.1,1.2-0.1,1.9-0.1c0,0,0.1,0,0.1,0C18,25.3,18,25.3,18.1,25.3z M22.3,28.5
		c0,0.3,0.1,0.5,0.1,0.8c0,0.1,0,0.1,0.1,0.1c0.1,0,0.2-0.1,0.3-0.1c0.1-0.1,0.2-0.2,0.3-0.4c0-0.2,0-0.3,0-0.5
		c0-0.3-0.2-0.4-0.5-0.5c-0.2-0.1-0.3-0.1-0.5-0.1C22.2,28,22.3,28.3,22.3,28.5z"/>
	<path class="st2" d="M19.3,40.1c-0.2-0.6-0.3-1.1-0.5-1.7c-0.7-2.1-1.6-4-2.8-5.9c-0.8-1.3-1.6-2.6-2.4-3.9
		c-0.7-1.1-1.4-2.2-1.8-3.5c-0.7-2.3-0.4-4.5,0.9-6.6c1-1.6,2.5-2.7,4.3-3.2c4.2-1.2,8.8,1.1,9.9,5.6c0.4,1.8,0.2,3.5-0.5,5.1
		c-0.9,1.8-2,3.4-3,5.1c-1.4,2.2-2.6,4.4-3.4,6.8C19.7,38.8,19.5,39.4,19.3,40.1z"/>
	<circle class="st3" cx="19.3" cy="23" r="6.5"/>
	<g>
		<path class="st1" d="M17.6,26.6c-0.1,0-0.4,0-0.4,0c-0.8,0-1.3-0.1-2-0.2c-0.2,0-0.4-0.1-0.6-0.1c0,0-0.1,0-0.1-0.1
			c-0.1,0-0.1-0.1,0-0.1c0.1-0.1,0.3-0.1,0.5-0.1c0.4-0.1,0.8-0.1,1.2-0.1c0,0,0,0,0,0c-0.6-0.5-1-1.2-1.3-1.9
			c-0.2-0.6-0.3-1.3-0.4-1.9c-0.1-0.7-0.1-1.5-0.1-2.2c0-0.1,0-0.1,0.1-0.1c2.9,0,5.7,0,8.6,0c0.1,0,0.1,0,0.1,0.1
			c0,0.2,0,0.5,0,0.7c0,0.1,0,0.1,0.1,0.1c0.5,0.1,0.9,0.2,1.3,0.5c0.9,0.7,0.9,2.1,0,2.7c-0.4,0.3-0.9,0.5-1.4,0.5
			c-0.2,0-0.3,0-0.5,0c-0.1,0-0.1,0-0.1,0.1c-0.2,0.4-0.5,0.8-0.8,1.1c-0.1,0.1-0.1,0.1-0.2,0.2c0.2,0,0.5,0,0.7,0.1
			c0.3,0,0.6,0.1,0.9,0.2c0.1,0,0.2,0,0.2,0.1c0,0.1-0.1,0.1-0.2,0.1c-0.3,0.1-0.6,0.1-0.9,0.2c-0.7,0.1-1.4,0.1-2,0.1
			c0,0,0,0-0.1,0c-0.1,0-0.1,0-0.2,0c-0.1,0-0.1,0-0.1,0c-0.1,0-0.1,0-0.2,0c-0.5,0-0.9,0-1.4,0c-0.1,0-0.1,0-0.2,0c0,0-0.1,0-0.2,0
			C17.8,26.6,17.7,26.6,17.6,26.6z M22.9,23.5c0.2,0,0.4-0.1,0.6-0.1c0.3-0.1,0.5-0.3,0.6-0.7c0-0.2,0-0.4,0-0.6
			c0-0.2-0.1-0.4-0.3-0.5c-0.1-0.1-0.3-0.1-0.4-0.2c-0.2,0-0.2,0-0.2,0.1c0,0.3-0.1,0.6-0.1,1C23.1,22.8,23,23.1,22.9,23.5z"/>
		<path class="st2" d="M17.8,24.3c0-0.1,0-0.3,0.1-0.3c0.1,0,0.3,0,0.4,0.2c0.1,0.1,0,0.3-0.1,0.4c-0.2,0.2-0.4,0.2-0.7,0.1
			c-0.6-0.1-0.9-0.6-1.1-1.2c-0.4-1.4,0.6-2.8,2-3c1.1-0.2,2.2,0.3,2.7,1.3c0.4,0.7,0.4,1.4,0.1,2.2c-0.3,0.5-0.7,0.8-1.3,0.7
			c-0.1,0-0.2,0-0.3-0.1c-0.1-0.1-0.2-0.3-0.1-0.4c0.1-0.2,0.2-0.2,0.4-0.2c0.1,0,0.2,0.2,0.1,0.3c-0.1,0-0.1,0.1,0,0.1
			c0.3,0,0.5-0.1,0.7-0.2c0.2-0.2,0.3-0.5,0.4-0.8c0-0.2,0.1-0.4,0.2-0.5c0.1-0.1,0-0.1,0-0.2c0,0-0.1,0-0.1,0c0,0,0.1-0.1,0.1-0.1
			c0.1-0.1,0.1-0.2,0.1-0.2c0-0.1-0.1-0.2-0.3-0.1c-0.1,0-0.1,0-0.1-0.1c-0.3-0.7-0.9-1.2-1.6-1.4c0,0-0.1,0-0.1,0c0,0,0,0.1,0,0.1
			c-0.1,0.2-0.2,0.2-0.3,0.2c-0.1,0-0.3-0.1-0.3-0.2c0,0,0-0.1,0-0.2c0,0,0,0,0,0c-0.8,0.2-1.4,0.6-1.7,1.4c0,0,0,0.1-0.1,0.1
			c-0.2,0-0.3,0.1-0.2,0.3c0,0.1,0.1,0.1,0.1,0.2c-0.2,0.1-0.2,0.1-0.1,0.3c0.1,0.1,0.1,0.2,0.1,0.3c0,0.3,0.1,0.5,0.3,0.8
			C17.3,24.3,17.5,24.4,17.8,24.3C17.9,24.4,17.9,24.4,17.8,24.3C17.9,24.3,17.9,24.3,17.8,24.3z"/>
		<path class="st4" d="M17.8,24.3C17.9,24.3,17.9,24.3,17.8,24.3C17.9,24.4,17.9,24.4,17.8,24.3c-0.3,0.1-0.6,0-0.8-0.3
			c-0.2-0.2-0.3-0.5-0.3-0.8c0-0.1-0.1-0.2-0.1-0.3c-0.1-0.2-0.1-0.2,0.1-0.3c0-0.1-0.1-0.1-0.1-0.2c-0.1-0.2,0-0.3,0.2-0.3
			c0.1,0,0.1,0,0.1-0.1c0.3-0.8,0.9-1.2,1.7-1.4c0,0,0,0,0,0c0,0.1,0,0.1,0,0.2c-0.6,0.2-1.1,0.5-1.4,1.1c0,0.1,0.1,0,0.2,0
			c0,0.1,0.1,0.2,0.1,0.2c0,0,0,0-0.1,0c-0.2,0-0.3,0.1-0.3,0.2c-0.2,0.5-0.1,1.2,0.3,1.6C17.5,24.2,17.6,24.3,17.8,24.3z"/>
		<path class="st5" d="M19.2,20.9c0,0,0-0.1,0-0.1c0,0,0.1,0,0.1,0c0.8,0.2,1.3,0.6,1.6,1.4c0,0,0,0.1,0.1,0.1
			c0.1-0.1,0.2,0.1,0.3,0.1c0,0.1,0,0.2-0.1,0.2c0,0-0.1,0.1-0.1,0.1c0,0,0.1,0,0.1,0c0.1,0,0.1,0.1,0,0.2C21.1,23,21,23.2,21,23.4
			c-0.1,0.3-0.2,0.5-0.4,0.8c-0.2,0.2-0.4,0.3-0.7,0.2c-0.1,0-0.1,0,0-0.1c0.2,0,0.4-0.1,0.6-0.2c0.3-0.4,0.5-1.1,0.3-1.6
			c-0.1-0.1-0.2-0.3-0.3-0.2c0,0-0.1,0-0.1,0c0-0.1,0.1-0.1,0.1-0.2c0-0.1,0.1,0,0.2-0.1C20.5,21.6,19.8,21,19.2,20.9z"/>
		<path class="st6" d="M19.2,22.5c0.3,0,0.5,0.2,0.7,0.4c0,0,0.1,0.1,0,0.1c-0.1,0.1-0.2,0.2-0.3,0.3c-0.1,0.1-0.3,0.2-0.5,0.2
			c0-0.1-0.1-0.2,0-0.2c0,0,0.1,0,0.1-0.1c0.1-0.1,0.2-0.2,0.1-0.3c0-0.1-0.1-0.2-0.3-0.2c0,0-0.1,0-0.1,0c-0.1,0.1-0.2,0.1-0.3,0
			c0,0,0,0-0.1,0c-0.1,0-0.1,0-0.2,0c-0.3,0-0.5-0.2-0.7-0.4c0,0,0-0.1,0-0.1c0.2-0.1,0.2-0.3,0.4-0.4c0.1,0,0.1,0.1,0.1,0.2
			c-0.1,0.1-0.1,0.2-0.1,0.3c0.1,0.1,0.2,0.1,0.3,0.1c0.1,0,0.2,0,0.2-0.1c0,0,0.1,0,0.1,0C19,22.4,19.1,22.5,19.2,22.5z"/>
		<path class="st7" d="M19.1,23.3c0,0.1,0,0.2,0,0.2c0,0.1,0.1,0.2,0.1,0.2c0,0,0,0.1,0,0.1c0,0.1-0.1,0-0.1,0c0,0-0.1-0.1-0.1-0.1
			c-0.1,0-0.1,0-0.1-0.1c0-0.1-0.1-0.1-0.1,0c0,0.1-0.1,0.1-0.1,0.1c0,0-0.1,0-0.1,0.1c0,0-0.1,0.1-0.1,0c0,0,0-0.1,0-0.1
			c0.1-0.1,0.1-0.2,0.2-0.3c0-0.1,0-0.1,0-0.2c0-0.2,0-0.3,0-0.5c0,0,0,0,0.1,0c0.1,0.1,0.2,0.1,0.3,0c0,0,0.1,0,0.1,0
			C19.1,22.9,19.1,23.1,19.1,23.3z"/>
		<path class="st8" d="M18.4,22.1c0-0.1-0.1-0.1-0.1-0.2c-0.1-0.1-0.2-0.2-0.3-0.2c0,0,0,0,0,0c0.1-0.1,0.2-0.1,0.3-0.1
			c0.1,0,0.1-0.2,0.3-0.1c0.1,0,0.1,0,0.1,0.1c0,0.1,0,0.2,0,0.3c0,0.1,0,0.1,0.1,0.2c0,0.2,0.1,0.3,0.2,0.4
			c-0.1,0.1-0.1,0.1-0.2,0.1C18.6,22.3,18.5,22.2,18.4,22.1z"/>
		<path class="st9" d="M18.7,21.9c0-0.1-0.1-0.1-0.1-0.2c0,0,0,0,0,0c0.2-0.2,0.4-0.1,0.6,0.1c0.1,0.1,0.2,0.1,0.3,0.1
			c0.1,0,0.2,0,0.2,0c0,0.1-0.1,0.1-0.1,0.2c0,0,0,0.1-0.1,0.1c-0.1,0-0.1-0.1-0.2-0.1c-0.1-0.1-0.2-0.1-0.3-0.1
			C19,21.9,18.8,21.9,18.7,21.9z"/>
		<path class="st8" d="M19.5,21.9c-0.1,0-0.2,0-0.3-0.1c0-0.1,0.1-0.2,0-0.3c0-0.1,0-0.1,0.1-0.1c0.2,0,0.2,0.2,0.3,0.1
			c0.1,0,0.2,0,0.3,0.1C19.7,21.7,19.6,21.8,19.5,21.9z"/>
		<path class="st10" d="M18.7,23.3c0,0.1,0,0.1,0,0.2c-0.1,0-0.2-0.1-0.3-0.1c-0.1,0-0.2,0-0.3,0.1c0,0-0.1,0-0.1,0c0,0,0-0.1,0-0.1
			c0.1-0.1,0.1-0.2,0.1-0.3c0-0.1,0-0.1,0.1-0.1c0,0,0.1,0,0.1,0C18.3,23.2,18.5,23.2,18.7,23.3z"/>
		<path class="st11" d="M19.2,21.9c0.1,0,0.2,0,0.3,0.1c-0.1,0.1-0.1,0.3-0.2,0.4c-0.1,0-0.2,0-0.2-0.1C19,22.2,19.1,22.1,19.2,21.9
			z"/>
	</g>
</g>
</svg>
