<?xml version="1.0" encoding="utf-8"?>
<!-- Generator: Adobe Illustrator 22.0.0, SVG Export Plug-In . SVG Version: 6.00 Build 0)  -->
<svg version="1.1" id="Calque_1" xmlns="http://www.w3.org/2000/svg" xmlns:xlink="http://www.w3.org/1999/xlink" x="0px" y="0px"
	 viewBox="0 0 40 60" style="enable-background:new 0 0 40 60;" xml:space="preserve">
<style type="text/css">
	.st0{fill:#406318;}
	.st1{fill:#FFFFFF;stroke:#A3A3A3;stroke-width:0.1;stroke-miterlimit:10;}
	.st2{fill:#7FBC41;}
	.st3{fill:#FFFFFF;stroke:#FFFFFF;stroke-width:0.25;stroke-miterlimit:10;}
</style>
<path class="st0" d="M19.4,36.7c0.1-0.5,0.3-0.9,0.4-1.3c0.6-1.6,1.4-3.1,2.3-4.5c0.7-1.1,1.4-2.2,2-3.4c0.5-1.1,0.6-2.2,0.4-3.4
	c-0.8-3-3.8-4.5-6.5-3.7c-1.2,0.3-2.2,1.1-2.8,2.1c-0.9,1.3-1.1,2.8-0.6,4.3c0.3,0.8,0.7,1.6,1.2,2.3c0.5,0.9,1.1,1.7,1.6,2.5
	c0.7,1.2,1.4,2.5,1.8,3.9C19.2,36,19.3,36.4,19.4,36.7z"/>
<path class="st1" d="M18.6,26.9C18.6,26.9,18.6,26.9,18.6,26.9c0.1,0,0.1,0,0.2,0c0.2,0,0.5,0,0.7,0c0,0,0.1,0,0.1,0c0,0,0,0,0.1,0
	c0,0,0.1,0,0.1,0c0,0,0,0,0,0c0.4,0,0.7,0,1.1,0.1c0.2,0,0.3,0,0.5,0.1c0,0,0.1,0,0.1,0.1c0,0-0.1,0-0.1,0.1
	c-0.2,0.1-0.3,0.1-0.5,0.1c-0.1,0-0.2,0-0.4,0c0,0,0.1,0.1,0.1,0.1c0.2,0.2,0.3,0.4,0.4,0.6c0,0,0,0,0.1,0c0.1,0,0.2,0,0.3,0
	c0.3,0,0.5,0.1,0.8,0.3c0.5,0.3,0.5,1.1,0,1.4c-0.2,0.2-0.4,0.2-0.7,0.3c0,0-0.1,0-0.1,0.1c0,0.1,0,0.3,0,0.4c0,0,0,0.1-0.1,0.1
	c-1.5,0-3.1,0-4.6,0c-0.1,0-0.1,0-0.1-0.1c0-0.4,0-0.8,0-1.2c0-0.3,0.1-0.7,0.2-1c0.1-0.4,0.3-0.8,0.7-1c0,0,0,0,0,0
	c-0.2,0-0.4,0-0.7-0.1c-0.1,0-0.2,0-0.2-0.1c0,0,0,0,0-0.1c0,0,0,0,0.1,0c0.1,0,0.2-0.1,0.3-0.1c0.4-0.1,0.8-0.1,1.2-0.1
	c0,0,0,0,0.1,0C18.5,26.9,18.6,26.9,18.6,26.9z M21.4,29.1c0,0.2,0,0.3,0.1,0.5c0,0.1,0,0.1,0.1,0.1c0.1,0,0.1-0.1,0.2-0.1
	c0.1-0.1,0.2-0.2,0.2-0.3c0-0.1,0-0.2,0-0.3c0-0.2-0.1-0.3-0.3-0.4c-0.1,0-0.2-0.1-0.3-0.1C21.4,28.7,21.4,28.9,21.4,29.1z"/>
<path class="st2" d="M19.4,36.7c-0.1-0.4-0.2-0.7-0.3-1.1c-0.5-1.4-1.1-2.7-1.8-3.9c-0.5-0.9-1.1-1.7-1.6-2.5
	c-0.4-0.7-0.9-1.5-1.2-2.3c-0.5-1.5-0.3-3,0.6-4.3c0.7-1,1.6-1.8,2.8-2.1c2.8-0.8,5.8,0.7,6.5,3.7c0.3,1.2,0.2,2.3-0.4,3.4
	c-0.6,1.2-1.3,2.3-2,3.4c-0.9,1.4-1.7,2.9-2.3,4.5C19.7,35.8,19.5,36.3,19.4,36.7z"/>
<circle class="st3" cx="19.4" cy="25.4" r="4.3"/>
<path class="st2" d="M21.5,24.9c-0.1,0-0.1,0-0.2,0c-0.5,0-0.9,0-1.3-0.3c-0.3-0.2-0.5-0.6-0.6-0.9c0,0,0,0,0,0c0-0.1-0.1-0.1-0.1,0
	c-0.1,0.1-0.2,0.2-0.3,0.3c-0.5,0.5-0.8,1.2-1,1.9c-0.2,0.8-0.1,1.6,0.2,2.4c0,0,0,0.1,0,0.1c0,0,0,0,0,0c-0.1-0.1-0.1-0.1-0.2-0.2
	c-0.8-0.8-1.6-1.7-2.4-2.5c-0.2-0.2-0.2-0.1,0-0.3c1.2-1.2,2.5-2.5,3.7-3.7c0.1-0.1,0.1-0.1,0.2,0c0.2,0.3,0.5,0.5,0.7,0.7
	c0.1,0.1,0.1,0.1,0,0.2c-0.4,0.4-0.4,1.2,0,1.6c0.2,0.2,0.4,0.3,0.7,0.3c0.4,0.1,0.8,0,1.2-0.1c0.1,0,0.1,0,0.1,0
	c0.4,0.4,0.7,0.7,1.1,1.1c0.1,0.1,0.1,0.1,0,0.2c-1.2,1.1-2.3,2.3-3.5,3.4c0,0-0.1,0.1-0.1,0.1c0,0,0-0.1,0-0.1
	c-0.1-0.7,0.1-1.4,0.3-2C20.3,26.2,20.8,25.5,21.5,24.9C21.4,24.9,21.5,24.9,21.5,24.9z"/>
<path class="st2" d="M18.3,26.7c0-0.7,0.2-1.2,0.4-1.8c0.2-0.3,0.3-0.6,0.5-0.9c0,0,0-0.1,0.1,0c0,0,0,0,0,0.1
	c0,0.5,0.3,0.9,0.7,1.1c0.1,0.1,0.3,0.1,0.4,0.1c0.1,0,0.1,0,0,0.1c-0.1,0.1-0.2,0.3-0.4,0.4c-0.2,0.2-0.3,0.5-0.4,0.8
	c-0.1,0.4-0.2,0.8-0.3,1.2c0,0.3-0.1,0.7,0,1c0,0,0,0.1,0,0.1c0,0-0.1,0-0.1,0c-0.5-0.5-0.8-1-1-1.7C18.3,27,18.3,26.8,18.3,26.7z"
	/>
<path class="st2" d="M21.1,24.3c-0.5,0-0.9-0.4-0.9-0.9c0-0.5,0.4-0.9,0.9-0.9c0.5,0,0.9,0.4,0.9,0.9C22,23.9,21.6,24.3,21.1,24.3z"
	/>
</svg>
