<?xml version="1.0" encoding="utf-8"?>
<!-- Generator: Adobe Illustrator 22.0.0, SVG Export Plug-In . SVG Version: 6.00 Build 0)  -->
<svg version="1.1" id="Calque_1" xmlns="http://www.w3.org/2000/svg" xmlns:xlink="http://www.w3.org/1999/xlink" x="0px" y="0px"
	 viewBox="0 0 40 60" style="enable-background:new 0 0 40 60;" xml:space="preserve">
<style type="text/css">
	.st0{fill:#FFFFFF;}
	.st1{fill:#E22220;}
</style>
<ellipse class="st0" cx="20.2" cy="28" rx="4.3" ry="4.6"/>
<path class="st1" d="M25.2,27.9c0-2.8-2.3-5.1-5.1-5.1s-5.1,2.3-5.1,5.1c0,2.5,1.8,4.5,4.1,5l0.7,1.4c0.1,0.1,0.3,0.1,0.3,0l0.8-1.4
	C23.5,32.4,25.2,30.4,25.2,27.9z M20.2,24.5c1,0,1.9,0.9,1.9,1.9c0,1-0.9,1.9-1.9,1.9c-1,0-1.9-0.9-1.9-1.9
	C18.3,25.3,19.1,24.5,20.2,24.5z M20.2,31.9L20.2,31.9c-1.1,0.1-3.4-0.8-3.3-2c0.1-1.2,3.3-0.9,3.3-0.9c0.1,0,3.1-0.3,3.3,0.9
	C23.6,31.1,21.3,32,20.2,31.9z"/>
</svg>
